<?xml version="1.0" encoding="UTF-8"?><svg id="Layer_1" xmlns="http://www.w3.org/2000/svg" viewBox="0 0 82.76 73.18"><path d="M59.31,60.73h-19.96c1,3.23,.78,6.28-1.36,9-1.3,1.65-2.99,2.72-5.02,3.19-4.16,.96-8.34-1.09-10.17-4.93-1.97-4.14-.67-8.33,3.48-11.58-1.64-6.83-3.27-13.58-4.89-20.34-2.27-9.5-4.53-19.01-6.79-28.51-.34-1.42-1.07-2.01-2.53-2.02-2.98-.01-5.97,0-8.95,0C1.2,5.53,0,4.46,0,2.81,0,1.08,1.2,.01,3.15,0,6.07,0,8.99,0,11.91,0c4.22,.02,7.1,2.3,8.08,6.39,.36,1.51,.79,3.01,1.08,4.54,.14,.76,.46,.94,1.19,.94,6.73-.03,13.46-.02,20.2-.02,12.37,0,24.74,.05,37.11-.03,2.16-.01,3.64,1.65,3.08,3.92-2.53,10.33-4.95,20.68-7.42,31.02-.5,2.1-1.31,2.75-3.47,2.75-13.4,0-26.8,0-40.19,0-.39,0-.77,0-1.28,0,.32,1.3,.54,2.47,.89,3.6,.39,1.24,1.51,1.99,2.9,2,1.99,.02,3.98,0,5.97,0,9.19,0,18.37,0,27.56,0,4.69,0,8.32,3,9.16,7.52,.95,5.07-2.72,9.84-8.05,10.46-4.91,.57-9.62-3.45-9.76-8.43-.04-1.3,.23-2.61,.37-3.97ZM42.41,17.43c.28,3.52,.56,6.97,.84,10.43h12.66c.28-3.51,.54-6.95,.82-10.43h-14.31Zm-19.71-.03c.03,.28,.02,.44,.06,.59,.73,3.09,1.48,6.18,2.19,9.27,.14,.6,.47,.68,.99,.68,3.64-.02,7.29,0,10.93-.02,.25,0,.5-.06,.83-.1-.28-3.51-.56-6.95-.84-10.42h-14.16Zm38.75,10.49h12.58c.83-3.48,1.65-6.94,2.49-10.48h-14.24c-.28,3.48-.55,6.92-.83,10.48Zm-17.75,5.62c.26,3.37,.5,6.67,.81,9.96,.02,.2,.54,.5,.83,.5,2.05,.04,4.11,.02,6.16,.02,1.02,0,2.04,0,3.11,0,.28-3.55,.55-6.98,.83-10.49h-11.75Zm-4.72,10.49c-.29-3.6-.56-7.05-.83-10.51h-11.54c-.04,.12-.08,.19-.07,.25,.77,3.26,1.53,6.51,2.32,9.76,.05,.2,.38,.48,.58,.48,3.11,.03,6.22,.02,9.53,.02Zm33.7-10.5h-11.68c-.28,3.51-.55,6.95-.83,10.5,3.28,0,6.42,.01,9.56-.03,.2,0,.51-.36,.58-.6,.36-1.31,.66-2.63,.98-3.95,.46-1.96,.92-3.91,1.39-5.91Zm-45.2,30.68c.02,1.94,1.55,3.46,3.48,3.45,1.9,0,3.48-1.6,3.46-3.5-.01-1.89-1.63-3.48-3.51-3.46-1.93,.03-3.46,1.58-3.44,3.5Zm43.86,.02c.02-1.94-1.48-3.49-3.41-3.52-1.9-.03-3.48,1.51-3.53,3.43-.04,1.88,1.54,3.49,3.44,3.51,1.94,.02,3.48-1.48,3.5-3.42Z" style="fill:#fff;"/></svg>