<?xml version="1.0" encoding="utf-8"?>
<!-- Generator: Adobe Illustrator 27.0.1, SVG Export Plug-In . SVG Version: 6.00 Build 0)  -->
<svg version="1.1" id="Layer_1" xmlns="http://www.w3.org/2000/svg" xmlns:xlink="http://www.w3.org/1999/xlink" x="0px" y="0px"
	 viewBox="0 0 203.32 225" style="enable-background:new 0 0 203.32 225;" xml:space="preserve">
<path d="M30.15,225c-2.67,0-5.33,0-8,0c-0.6-0.27-1.17-0.63-1.8-0.79c-19.87-5.03-26.89-27.45-13.39-42.77
	c7.05-7.99,14.06-16.02,21.07-24.05c13.04-14.91,26.07-29.82,39.17-44.8c-0.98-1.21-1.78-2.27-2.65-3.27
	C45.36,87.4,26.16,65.48,6.97,43.55c-6.82-7.79-8.73-16.64-5.3-26.46C5.08,7.36,12.67,2.52,22.15,0c2.67,0,5.33,0,8,0
	c4.96,2.84,10.86,4.75,14.69,8.69c10.08,10.38,19.26,21.64,28.8,32.55c9.28,10.59,18.56,21.18,28.03,31.98
	c17.7-20.21,35.19-39.87,52.27-59.87C159.3,7.07,165.18,2.18,173.17,0c2.67,0,5.33,0,8,0c0.6,0.27,1.17,0.63,1.8,0.79
	c19.88,5.03,26.88,27.4,13.38,42.77c-7.03,8.01-14.05,16.03-21.07,24.05c-13.04,14.91-26.07,29.82-39.16,44.8
	c0.98,1.21,1.78,2.27,2.65,3.26c19.19,21.93,38.39,43.85,57.57,65.78c6.82,7.79,8.73,16.65,5.3,26.46
	c-3.4,9.72-10.98,14.59-20.48,17.09c-2.67,0-5.33,0-8,0c-5.07-2.97-11.07-5.02-15.01-9.08c-10.2-10.5-19.48-21.89-29.13-32.92
	c-9.06-10.34-18.12-20.67-27.38-31.23c-17.59,20.09-34.93,39.66-51.95,59.51C44.26,217.63,38.4,222.89,30.15,225z"/>
</svg>
